<!-- public/assets/proof-card.svg  (diagram only) -->
<svg xmlns="http://www.w3.org/2000/svg" width="600" height="220" viewBox="0 0 600 220">
  <rect x="0" y="0" width="600" height="220" rx="12" fill="#111"/>
  <!-- Diamonds + arrows -->
  <g transform="translate(80, 42)" fill="none" stroke="#eaeaea" stroke-width="3">
    <polygon points="0,22 22,0 44,22 22,44"/>
    <line x1="56" y1="22" x2="96" y2="22" stroke-width="2"/>
    <polygon transform="translate(108,0)" points="0,22 22,0 44,22 22,44"/>
    <line x1="164" y1="22" x2="204" y2="22" stroke-width="2"/>
    <polygon transform="translate(216,0)" points="0,22 22,0 44,22 22,44"/>
  </g>
  <!-- Down arrow to square -->
  <g transform="translate(300, 42)" stroke="#eaeaea" fill="none" stroke-width="2">
    <line x1="0" y1="60" x2="0" y2="130"/>
    <polyline points="-6,124 0,136 6,124"/>
    <rect x="-18" y="142" width="36" height="36"/>
  </g>
</svg>